<?xml version="1.0" encoding="UTF-8" standalone="no"?>
<!DOCTYPE svg PUBLIC "-//W3C//DTD SVG 1.1//EN" "http://www.w3.org/Graphics/SVG/1.1/DTD/svg11.dtd">
<svg width="100%" height="100%" viewBox="0 0 960 960" version="1.1" xmlns="http://www.w3.org/2000/svg" xmlns:xlink="http://www.w3.org/1999/xlink" xml:space="preserve" xmlns:serif="http://www.serif.com/" style="fill-rule:evenodd;clip-rule:evenodd;stroke-linecap:round;stroke-linejoin:round;stroke-miterlimit:1.5;">
    <g transform="matrix(1.33333,0,0,1.33333,0,0)">
        <path d="M46.316,670.788C9.803,402.926 414.102,185.365 475.993,188.316C476.528,188.341 542.27,252.71 535.497,254.778C407.441,293.861 104.212,555.261 148.927,674.507" style="fill:none;stroke:white;stroke-width:23px;"/>
        <path d="M502.59,198.024C509.232,198.024 548.076,115.17 509.792,87.944C507.153,86.068 502.59,78.738 502.59,76.507" style="fill:none;stroke:white;stroke-width:23px;"/>
        <path d="M499.837,73.944C499.837,65.193 490.306,62.006 490.306,55.306" style="fill:none;stroke:white;stroke-width:9px;"/>
        <path d="M571.531,85.59C583.524,121.19 526.552,221.846 509.892,217.049" style="fill:none;stroke:white;stroke-width:23px;"/>
        <path d="M571.517,62.361C571.517,69.153 572.764,77.178 572.764,84.236" style="fill:none;stroke:white;stroke-width:9px;"/>
        <path d="M629.622,174.073C608.637,202.407 529.232,232.317 522.608,229.465" style="fill:none;stroke:white;stroke-width:23px;"/>
        <path d="M650.67,158.184C647.663,158.184 639.211,166.337 637.333,168.184C636.283,169.217 629.893,172.559 629.917,172.559" style="fill:none;stroke:white;stroke-width:9px;"/>
        <path d="M649.885,213.142C610.394,208.345 541.138,243.74 530.299,243.74" style="fill:none;stroke:white;stroke-width:23px;"/>
        <path d="M676.122,206.476C672.863,209.681 663.521,213.559 659.194,213.559C659.051,213.559 657.924,214.169 657.924,214.392" style="fill:none;stroke:white;stroke-width:9px;"/>
    </g>
</svg>
